<svg xmlns="http://www.w3.org/2000/svg" xmlns:xlink="http://www.w3.org/1999/xlink" width="500" zoomAndPan="magnify" viewBox="0 0 375 374.999991" height="500" preserveAspectRatio="xMidYMid meet" version="1.0"><defs><clipPath id="6e9fd78557"><path d="M 115 112.5 L 260 112.5 L 260 262.5 L 115 262.5 Z M 115 112.5 " clip-rule="nonzero"/></clipPath><clipPath id="6013f4ce0b"><path d="M 144.78125 198.058594 L 230.28125 198.058594 L 230.28125 252.808594 L 144.78125 252.808594 Z M 144.78125 198.058594 " clip-rule="nonzero"/></clipPath></defs><g clip-path="url(#6e9fd78557)"><path fill="#ffffff" d="M 151.738281 161.269531 L 115.738281 257.652344 C 114.863281 260 116.597656 262.503906 119.101562 262.503906 L 149.722656 262.503906 C 151.242188 262.503906 152.601562 261.542969 153.109375 260.105469 L 161.660156 235.90625 L 172.003906 204.90625 C 172.25 204.175781 172.253906 203.382812 172.011719 202.652344 L 158.515625 161.40625 C 157.457031 158.179688 152.925781 158.085938 151.738281 161.269531 Z M 202.570312 112.496094 L 175.253906 112.496094 C 172.785156 112.496094 171.050781 114.933594 171.863281 117.265625 L 187.203125 161.492188 L 187.222656 161.429688 L 212.394531 235.90625 L 221.121094 260.128906 C 221.632812 261.550781 222.984375 262.503906 224.5 262.503906 L 255.878906 262.503906 C 258.386719 262.503906 260.121094 260 259.246094 257.65625 L 205.9375 114.832031 C 205.410156 113.429688 204.070312 112.496094 202.570312 112.496094 " fill-opacity="1" fill-rule="nonzero"/></g><g clip-path="url(#6013f4ce0b)"><path fill="#ffffff" d="M 228.265625 225.582031 L 214.613281 225.582031 C 212.625 225.582031 210.914062 227.097656 210.550781 229.183594 L 209.515625 235.058594 L 206.242188 217.503906 C 205.894531 215.660156 204.433594 214.390625 202.667969 214.390625 C 202.640625 214.390625 202.613281 214.390625 202.582031 214.390625 C 200.773438 214.433594 199.324219 215.792969 199.058594 217.6875 L 194.84375 247.667969 L 189.988281 201.5 C 189.78125 199.53125 188.277344 198.082031 186.414062 198.058594 C 186.398438 198.058594 186.382812 198.058594 186.367188 198.058594 C 184.527344 198.058594 183.015625 199.449219 182.757812 201.386719 L 178.152344 235.835938 L 176.007812 215.972656 C 175.796875 214.042969 174.371094 212.632812 172.539062 212.546875 C 170.707031 212.453125 169.203125 213.714844 168.820312 215.589844 L 166.566406 226.644531 L 166.101562 223.886719 C 165.816406 222.195312 164.542969 220.925781 162.929688 220.726562 C 161.328125 220.535156 159.863281 221.414062 159.183594 222.984375 L 158.09375 225.582031 L 146.730469 225.582031 C 145.683594 225.582031 144.832031 226.429688 144.832031 227.476562 C 144.832031 228.523438 145.683594 229.375 146.730469 229.375 L 158.332031 229.375 C 159.71875 229.375 160.980469 228.507812 161.542969 227.167969 L 162.445312 225.023438 L 162.964844 228.085938 C 163.273438 229.933594 164.726562 231.246094 166.492188 231.277344 C 168.265625 231.332031 169.742188 230.058594 170.113281 228.230469 L 172.339844 217.324219 L 174.515625 237.488281 C 174.730469 239.457031 176.238281 240.902344 178.101562 240.921875 C 178.113281 240.921875 178.128906 240.921875 178.144531 240.921875 C 180.007812 240.921875 181.484375 239.558594 181.742188 237.59375 L 186.347656 203.152344 L 191.199219 249.273438 C 191.402344 251.234375 192.902344 252.683594 194.757812 252.71875 C 194.785156 252.71875 194.808594 252.71875 194.828125 252.71875 C 196.675781 252.71875 198.148438 251.371094 198.425781 249.421875 L 202.6875 219.125 L 205.949219 236.613281 C 206.292969 238.449219 207.761719 239.722656 209.523438 239.722656 C 209.53125 239.722656 209.539062 239.722656 209.546875 239.722656 C 211.320312 239.710938 212.785156 238.410156 213.101562 236.566406 L 214.285156 229.839844 C 214.339844 229.527344 214.523438 229.371094 214.613281 229.371094 L 228.265625 229.371094 C 229.3125 229.371094 230.164062 228.523438 230.164062 227.476562 C 230.164062 226.429688 229.3125 225.582031 228.265625 225.582031 Z M 228.265625 225.582031 " fill-opacity="1" fill-rule="nonzero"/></g></svg>